# xmcd
#
# Track frame offsets:
#	150
#	17534
#	36172
#	52101
#	67871
#	84805
#	102426
#	121412
#	139042
#	157089
#	180692
#
# Disc length: 2992 seconds
#
# Revision: 1
# Processed by: cddbd v1.5.2PL0 Copyright (c) Steve Scherf et al.
# Submitted via: audiograbber 1.83.01
#
DISCID=8b0bae0b
DTITLE=Blake Shelton - KGR13006
DYEAR=1900
DGENRE=Karaoke
TTITLE0=All About Tonight
TTITLE1=The Baby 
TTITLE2=Some Beach
TTITLE3=Goodbye Time
TTITLE4=She Wouldn't Be Gone
TTITLE5=Hillbilly Bone
TTITLE6=I'll Just Hold On
TTITLE7=Austin
TTITLE8=Home
TTITLE9=Nobody But Me
TTITLE10=Data Track
EXTD=
EXTT0=
EXTT1=
EXTT2=
EXTT3=
EXTT4=
EXTT5=
EXTT6=
EXTT7=
EXTT8=
EXTT9=
EXTT10=
PLAYORDER=
